<?xml version="1.0" encoding="utf-8"?>
<svg version="1.1" xmlns:xlink="http://www.w3.org/1999/xlink" width="23px" height="23px" xmlns="http://www.w3.org/2000/svg">
  <g>
    <path d="M 18.9441964285714 12.3385416666667  C 20.5528273809524 10.4618055555556  21.3571428571429 8.68489583333333  21.3571428571429 7.0078125  C 21.3571428571429 6.19921875  21.2651599702381 5.48546006944444  21.0811941964286 4.86653645833333  C 20.897228422619 4.24761284722222  20.6619233630952 3.75596788194444  20.3752790178571 3.3916015625  C 20.0886346726191 3.02723524305555  19.7399553571429 2.73025173611111  19.3292410714286 2.50065104166667  C 18.9185267857143 2.27105034722222  18.516369047619 2.11631944444444  18.1227678571429 2.03645833333333  C 17.7291666666667 1.95659722222222  17.3098958333333 1.91666666666667  16.8649553571429 1.91666666666667  C 16.4200148809524 1.91666666666667  15.9408482142857 2.0439453125  15.4274553571429 2.29850260416667  C 14.9140625 2.55305989583333  14.4413132440476 2.87250434027778  14.0092075892857 3.2568359375  C 13.5771019345238 3.64116753472222  13.20703125 4.00054253472222  12.8989955357143 4.3349609375  C 12.5909598214286 4.66937934027778  12.3342633928571 4.97634548611111  12.12890625 5.255859375  C 11.9748883928571 5.47547743055555  11.7652529761905 5.58528645833333  11.5 5.58528645833333  C 11.2347470238095 5.58528645833333  11.0251116071429 5.47547743055555  10.87109375 5.255859375  C 10.6657366071429 4.97634548611111  10.4090401785714 4.66937934027778  10.1010044642857 4.3349609375  C 9.79296875 4.00054253472222  9.42289806547619 3.64116753472222  8.99079241071428 3.2568359375  C 8.55868675595238 2.87250434027778  8.0859375 2.55305989583333  7.57254464285714 2.29850260416667  C 7.05915178571429 2.0439453125  6.57998511904762 1.91666666666667  6.13504464285714 1.91666666666667  C 5.69010416666667 1.91666666666667  5.27083333333333 1.95659722222222  4.87723214285714 2.03645833333333  C 4.48363095238095 2.11631944444444  4.08147321428571 2.27105034722222  3.67075892857143 2.50065104166667  C 3.26004464285714 2.73025173611111  2.91136532738095 3.02723524305555  2.62472098214286 3.3916015625  C 2.33807663690476 3.75596788194444  2.10277157738095 4.24761284722222  1.91880580357143 4.86653645833333  C 1.73484002976191 5.48546006944444  1.64285714285714 6.19921875  1.64285714285714 7.0078125  C 1.64285714285714 8.68489583333333  2.4428943452381 10.4568142361111  4.04296875 12.3235677083333  L 11.5 20.708984375  L 18.9441964285714 12.3385416666667  Z M 21.3699776785714 1.85677083333333  C 22.4566592261905 3.09461805555555  23 4.81163194444444  23 7.0078125  C 23 9.21397569444444  22.020275297619 11.4600694444444  20.0608258928571 13.74609375  L 12.0647321428571 22.73046875  C 11.9107142857143 22.91015625  11.7224702380952 23  11.5 23  C 11.2775297619048 23  11.0892857142857 22.91015625  10.9352678571429 22.73046875  L 2.92633928571429 13.7161458333333  C 2.84077380952381 13.6362847222222  2.72312127976191 13.5065104166667  2.57338169642857 13.3268229166667  C 2.42364211309524 13.1471354166667  2.18619791666667 12.8202039930556  1.86104910714286 12.3460286458333  C 1.53590029761905 11.8718532986111  1.24497767857143 11.3851996527778  0.98828125 10.8860677083333  C 0.731584821428571 10.3869357638889  0.502697172619048 9.78298611111111  0.301618303571429 9.07421875  C 0.10053943452381 8.36545138888889  0 7.67664930555555  0 7.0078125  C 0 4.81163194444444  0.543340773809524 3.09461805555555  1.63002232142857 1.85677083333333  C 2.71670386904762 0.618923611111111  4.21837797619048 0  6.13504464285714 0  C 6.66555059523809 0  7.20675223214286 0.107313368055554  7.75864955357143 0.321940104166668  C 8.310546875 0.536566840277776  8.82393973214286 0.826063368055554  9.298828125 1.1904296875  C 9.77371651785714 1.55479600694444  10.1822916666667 1.89670138888889  10.5245535714286 2.21614583333333  C 10.8668154761905 2.53559027777778  11.1919642857143 2.875  11.5 3.234375  C 11.8080357142857 2.875  12.1331845238095 2.53559027777778  12.4754464285714 2.21614583333333  C 12.8177083333333 1.89670138888889  13.2262834821429 1.55479600694444  13.701171875 1.1904296875  C 14.1760602678571 0.826063368055554  14.689453125 0.536566840277776  15.2413504464286 0.321940104166668  C 15.7932477678571 0.107313368055554  16.3344494047619 0  16.8649553571429 0  C 18.7816220238095 0  20.2832961309524 0.618923611111111  21.3699776785714 1.85677083333333  Z " fill-rule="nonzero" fill="#d9001b" stroke="none" />
  </g>
</svg>