<?xml version="1.0" encoding="utf-8"?>
<svg version="1.1" xmlns:xlink="http://www.w3.org/1999/xlink" width="23px" height="23px" xmlns="http://www.w3.org/2000/svg">
  <g>
    <path d="M 16.7109375 20.1884057971014  L 15.7157451923077 14.0869565217391  L 19.9453125 9.78260869565217  L 14.1123798076923 8.88405797101449  L 11.5 3.34782608695652  L 8.88762019230769 8.88405797101449  L 3.0546875 9.78260869565217  L 7.28425480769231 14.0869565217391  L 6.27524038461538 20.1884057971014  L 11.5 17.304347826087  L 16.7109375 20.1884057971014  Z M 22.2259615384615 8.2463768115942  C 22.7419871794872 8.33333333333333  23 8.55555555555556  23 8.91304347826087  C 23 9.1256038647343  22.8802083333333 9.35748792270531  22.640625 9.60869565217391  L 17.6231971153846 14.7391304347826  L 18.8118990384615 21.9855072463768  C 18.8211137820513 22.0531400966184  18.8257211538462 22.1497584541063  18.8257211538462 22.2753623188406  C 18.8257211538462 22.7584541062802  18.6368189102564 23  18.2590144230769 23  C 18.0839342948718 23  17.8996394230769 22.9420289855072  17.7061298076923 22.8260869565217  L 11.5 19.4057971014493  L 5.29387019230769 22.8260869565217  C 5.09114583333333 22.9420289855072  4.90685096153846 23  4.74098557692308 23  C 4.54747596153846 23  4.40234375 22.9299516908213  4.30558894230769 22.7898550724638  C 4.20883413461539 22.6497584541063  4.16045673076923 22.4782608695652  4.16045673076923 22.2753623188406  C 4.16045673076923 22.2173913043478  4.16967147435897 22.1207729468599  4.18810096153846 21.9855072463768  L 5.37680288461539 14.7391304347826  L 0.345552884615385 9.60869565217391  C 0.115184294871795 9.34782608695652  0 9.11594202898551  0 8.91304347826087  C 0 8.55555555555556  0.25801282051282 8.33333333333333  0.774038461538461 8.2463768115942  L 7.71274038461538 7.18840579710145  L 10.8227163461538 0.594202898550724  C 10.997796474359 0.19806763285024  11.2235576923077 0  11.5 0  C 11.7764423076923 0  12.002203525641 0.19806763285024  12.1772836538462 0.594202898550724  L 15.2872596153846 7.18840579710145  L 22.2259615384615 8.2463768115942  Z " fill-rule="nonzero" fill="#000000" stroke="none" />
  </g>
</svg>