<?xml version="1.0" encoding="utf-8"?>
<svg version="1.1" xmlns:xlink="http://www.w3.org/1999/xlink" width="33px" height="22px" xmlns="http://www.w3.org/2000/svg">
  <defs>
    <mask fill="white" id="clip1">
      <path d="M 31.55625 12.2578125  C 32.51875 13.3463541666667  33 14.59375  33 16  C 33 17.65625  32.35546875 19.0703125  31.06640625 20.2421875  C 29.77734375 21.4140625  28.221875 22  26.4 22  L 7.7 22  C 5.58020833333333 22  3.76692708333333 21.3151041666667  2.26015625 19.9453125  C 0.753385416666667 18.5755208333333  0 16.9270833333333  0 15  C 0 13.625  0.406770833333333 12.3671875  1.2203125 11.2265625  C 2.03385416666667 10.0859375  3.10520833333333 9.234375  4.434375 8.671875  C 4.41145833333333 8.38020833333333  4.4 8.15625  4.4 8  C 4.4 5.79166666666667  5.259375 3.90625  6.978125 2.34375  C 8.696875 0.78125  10.7708333333333 0  13.2 0  C 15.0104166666667 0  16.6518229166667 0.458333333333332  18.12421875 1.375  C 19.5966145833333 2.29166666666666  20.6708333333333 3.48958333333333  21.346875 4.96875  C 22.1489583333333 4.32291666666667  23.1 4  24.2 4  C 25.4145833333333 4  26.4515625 4.390625  27.3109375 5.171875  C 28.1703125 5.953125  28.6 6.89583333333333  28.6 8  C 28.6 8.78125  28.3651041666667 9.5  27.8953125 10.15625  C 29.3734375 10.46875  30.59375 11.1692708333333  31.55625 12.2578125  Z " fill-rule="evenodd" />
    </mask>
  </defs>
  <g transform="matrix(1 0 0 1 -20 -45 )">
    <path d="M 31.55625 12.2578125  C 32.51875 13.3463541666667  33 14.59375  33 16  C 33 17.65625  32.35546875 19.0703125  31.06640625 20.2421875  C 29.77734375 21.4140625  28.221875 22  26.4 22  L 7.7 22  C 5.58020833333333 22  3.76692708333333 21.3151041666667  2.26015625 19.9453125  C 0.753385416666667 18.5755208333333  0 16.9270833333333  0 15  C 0 13.625  0.406770833333333 12.3671875  1.2203125 11.2265625  C 2.03385416666667 10.0859375  3.10520833333333 9.234375  4.434375 8.671875  C 4.41145833333333 8.38020833333333  4.4 8.15625  4.4 8  C 4.4 5.79166666666667  5.259375 3.90625  6.978125 2.34375  C 8.696875 0.78125  10.7708333333333 0  13.2 0  C 15.0104166666667 0  16.6518229166667 0.458333333333332  18.12421875 1.375  C 19.5966145833333 2.29166666666666  20.6708333333333 3.48958333333333  21.346875 4.96875  C 22.1489583333333 4.32291666666667  23.1 4  24.2 4  C 25.4145833333333 4  26.4515625 4.390625  27.3109375 5.171875  C 28.1703125 5.953125  28.6 6.89583333333333  28.6 8  C 28.6 8.78125  28.3651041666667 9.5  27.8953125 10.15625  C 29.3734375 10.46875  30.59375 11.1692708333333  31.55625 12.2578125  Z " fill-rule="nonzero" fill="#ffffff" stroke="none" transform="matrix(1 0 0 1 20 45 )" />
    <path d="M 31.55625 12.2578125  C 32.51875 13.3463541666667  33 14.59375  33 16  C 33 17.65625  32.35546875 19.0703125  31.06640625 20.2421875  C 29.77734375 21.4140625  28.221875 22  26.4 22  L 7.7 22  C 5.58020833333333 22  3.76692708333333 21.3151041666667  2.26015625 19.9453125  C 0.753385416666667 18.5755208333333  0 16.9270833333333  0 15  C 0 13.625  0.406770833333333 12.3671875  1.2203125 11.2265625  C 2.03385416666667 10.0859375  3.10520833333333 9.234375  4.434375 8.671875  C 4.41145833333333 8.38020833333333  4.4 8.15625  4.4 8  C 4.4 5.79166666666667  5.259375 3.90625  6.978125 2.34375  C 8.696875 0.78125  10.7708333333333 0  13.2 0  C 15.0104166666667 0  16.6518229166667 0.458333333333332  18.12421875 1.375  C 19.5966145833333 2.29166666666666  20.6708333333333 3.48958333333333  21.346875 4.96875  C 22.1489583333333 4.32291666666667  23.1 4  24.2 4  C 25.4145833333333 4  26.4515625 4.390625  27.3109375 5.171875  C 28.1703125 5.953125  28.6 6.89583333333333  28.6 8  C 28.6 8.78125  28.3651041666667 9.5  27.8953125 10.15625  C 29.3734375 10.46875  30.59375 11.1692708333333  31.55625 12.2578125  Z " stroke-width="2" stroke="#74bedf" fill="none" transform="matrix(1 0 0 1 20 45 )" mask="url(#clip1)" />
  </g>
</svg>