<?xml version="1.0" encoding="utf-8"?>
<svg version="1.1" xmlns:xlink="http://www.w3.org/1999/xlink" width="36px" height="29px" xmlns="http://www.w3.org/2000/svg">
  <defs>
    <mask fill="white" id="clip2">
      <path d="M 30.8252788104089 16.5681995323461  C 30.8401486988848 16.5983372304495  30.8475836431227 16.6435437776046  30.8475836431227 16.7038191738114  L 30.8475836431227 27.5533904910366  C 30.8475836431227 27.9451805663809  30.7063197026022 28.2842296700442  30.4237918215613 28.5705378020265  C 30.1412639405204 28.8568459340088  29.8066914498141 29  29.4200743494424 29  L 20.8550185873606 29  L 20.8550185873606 20.3203429462198  L 15.1449814126394 20.3203429462198  L 15.1449814126394 29  L 6.57992565055762 29  C 6.19330855018587 29  5.85873605947955 28.8568459340088  5.57620817843866 28.5705378020265  C 5.29368029739777 28.2842296700442  5.15241635687732 27.9451805663809  5.15241635687732 27.5533904910366  L 5.15241635687732 16.7038191738114  C 5.15241635687732 16.6887503247597  5.15613382899628 16.6661470511821  5.1635687732342 16.6360093530787  C 5.17100371747212 16.6058716549753  5.17472118959108 16.5832683813978  5.17472118959108 16.5681995323461  L 18 5.85424785658613  L 30.8252788104089 16.5681995323461  Z M 35.9776951672862 14.6130163678878  C 35.9925650557621 14.8164458300857  35.9405204460967 14.9935048064432  35.82156133829 15.1441932969603  L 34.4386617100372 16.8168355416991  C 34.3197026022305 16.9524551831645  34.1635687732342 17.0353338529488  33.9702602230483 17.0654715510522  L 33.9033457249071 17.0654715510522  C 33.7100371747212 17.0654715510522  33.5539033457249 17.0127305793713  33.4349442379182 16.9072486360093  L 18 3.8651597817615  L 2.56505576208178 16.9072486360093  C 2.38661710037175 17.027799428423  2.20817843866171 17.0805404001039  2.02973977695167 17.0654715510522  C 1.8364312267658 17.0353338529488  1.68029739776952 16.9524551831645  1.56133828996283 16.8168355416991  L 0.178438661710037 15.1441932969603  C 0.0594795539033458 14.9935048064432  0.00743494423791827 14.8164458300857  0.0223048327137546 14.6130163678878  C 0.0371747211895912 14.4095869056898  0.118959107806692 14.247596778384  0.267657992565056 14.1270459859704  L 16.3048327137546 0.587685113016369  C 16.7806691449814 0.19589503767212  17.3457249070632 0  18 0  C 18.6542750929368 0  19.2193308550186 0.19589503767212  19.6951672862454 0.587685113016369  L 25.1375464684015 5.1987529228371  L 25.1375464684015 0.79111457521434  C 25.1375464684015 0.580150688490514  25.2044609665428 0.406858924395946  25.3382899628253 0.271239282930633  C 25.4721189591078 0.135619641465316  25.6431226765799 0.0678098207326582  25.8513011152416 0.0678098207326582  L 30.1338289962825 0.0678098207326582  C 30.3420074349442 0.0678098207326582  30.5130111524164 0.135619641465316  30.6468401486989 0.271239282930633  C 30.7806691449814 0.406858924395946  30.8475836431227 0.580150688490514  30.8475836431227 0.79111457521434  L 30.8475836431227 10.0132501948558  L 35.7323420074349 14.1270459859704  C 35.8810408921933 14.247596778384  35.9628252788104 14.4095869056898  35.9776951672862 14.6130163678878  Z " fill-rule="evenodd" />
    </mask>
  </defs>
  <g transform="matrix(1 0 0 1 -19 -619 )">
    <path d="M 30.8252788104089 16.5681995323461  C 30.8401486988848 16.5983372304495  30.8475836431227 16.6435437776046  30.8475836431227 16.7038191738114  L 30.8475836431227 27.5533904910366  C 30.8475836431227 27.9451805663809  30.7063197026022 28.2842296700442  30.4237918215613 28.5705378020265  C 30.1412639405204 28.8568459340088  29.8066914498141 29  29.4200743494424 29  L 20.8550185873606 29  L 20.8550185873606 20.3203429462198  L 15.1449814126394 20.3203429462198  L 15.1449814126394 29  L 6.57992565055762 29  C 6.19330855018587 29  5.85873605947955 28.8568459340088  5.57620817843866 28.5705378020265  C 5.29368029739777 28.2842296700442  5.15241635687732 27.9451805663809  5.15241635687732 27.5533904910366  L 5.15241635687732 16.7038191738114  C 5.15241635687732 16.6887503247597  5.15613382899628 16.6661470511821  5.1635687732342 16.6360093530787  C 5.17100371747212 16.6058716549753  5.17472118959108 16.5832683813978  5.17472118959108 16.5681995323461  L 18 5.85424785658613  L 30.8252788104089 16.5681995323461  Z M 35.9776951672862 14.6130163678878  C 35.9925650557621 14.8164458300857  35.9405204460967 14.9935048064432  35.82156133829 15.1441932969603  L 34.4386617100372 16.8168355416991  C 34.3197026022305 16.9524551831645  34.1635687732342 17.0353338529488  33.9702602230483 17.0654715510522  L 33.9033457249071 17.0654715510522  C 33.7100371747212 17.0654715510522  33.5539033457249 17.0127305793713  33.4349442379182 16.9072486360093  L 18 3.8651597817615  L 2.56505576208178 16.9072486360093  C 2.38661710037175 17.027799428423  2.20817843866171 17.0805404001039  2.02973977695167 17.0654715510522  C 1.8364312267658 17.0353338529488  1.68029739776952 16.9524551831645  1.56133828996283 16.8168355416991  L 0.178438661710037 15.1441932969603  C 0.0594795539033458 14.9935048064432  0.00743494423791827 14.8164458300857  0.0223048327137546 14.6130163678878  C 0.0371747211895912 14.4095869056898  0.118959107806692 14.247596778384  0.267657992565056 14.1270459859704  L 16.3048327137546 0.587685113016369  C 16.7806691449814 0.19589503767212  17.3457249070632 0  18 0  C 18.6542750929368 0  19.2193308550186 0.19589503767212  19.6951672862454 0.587685113016369  L 25.1375464684015 5.1987529228371  L 25.1375464684015 0.79111457521434  C 25.1375464684015 0.580150688490514  25.2044609665428 0.406858924395946  25.3382899628253 0.271239282930633  C 25.4721189591078 0.135619641465316  25.6431226765799 0.0678098207326582  25.8513011152416 0.0678098207326582  L 30.1338289962825 0.0678098207326582  C 30.3420074349442 0.0678098207326582  30.5130111524164 0.135619641465316  30.6468401486989 0.271239282930633  C 30.7806691449814 0.406858924395946  30.8475836431227 0.580150688490514  30.8475836431227 0.79111457521434  L 30.8475836431227 10.0132501948558  L 35.7323420074349 14.1270459859704  C 35.8810408921933 14.247596778384  35.9628252788104 14.4095869056898  35.9776951672862 14.6130163678878  Z " fill-rule="nonzero" fill="#ffffff" stroke="none" transform="matrix(1 0 0 1 19 619 )" />
    <path d="M 30.8252788104089 16.5681995323461  C 30.8401486988848 16.5983372304495  30.8475836431227 16.6435437776046  30.8475836431227 16.7038191738114  L 30.8475836431227 27.5533904910366  C 30.8475836431227 27.9451805663809  30.7063197026022 28.2842296700442  30.4237918215613 28.5705378020265  C 30.1412639405204 28.8568459340088  29.8066914498141 29  29.4200743494424 29  L 20.8550185873606 29  L 20.8550185873606 20.3203429462198  L 15.1449814126394 20.3203429462198  L 15.1449814126394 29  L 6.57992565055762 29  C 6.19330855018587 29  5.85873605947955 28.8568459340088  5.57620817843866 28.5705378020265  C 5.29368029739777 28.2842296700442  5.15241635687732 27.9451805663809  5.15241635687732 27.5533904910366  L 5.15241635687732 16.7038191738114  C 5.15241635687732 16.6887503247597  5.15613382899628 16.6661470511821  5.1635687732342 16.6360093530787  C 5.17100371747212 16.6058716549753  5.17472118959108 16.5832683813978  5.17472118959108 16.5681995323461  L 18 5.85424785658613  L 30.8252788104089 16.5681995323461  Z " stroke-width="4" stroke="#aaaaaa" fill="none" transform="matrix(1 0 0 1 19 619 )" mask="url(#clip2)" />
    <path d="M 35.9776951672862 14.6130163678878  C 35.9925650557621 14.8164458300857  35.9405204460967 14.9935048064432  35.82156133829 15.1441932969603  L 34.4386617100372 16.8168355416991  C 34.3197026022305 16.9524551831645  34.1635687732342 17.0353338529488  33.9702602230483 17.0654715510522  L 33.9033457249071 17.0654715510522  C 33.7100371747212 17.0654715510522  33.5539033457249 17.0127305793713  33.4349442379182 16.9072486360093  L 18 3.8651597817615  L 2.56505576208178 16.9072486360093  C 2.38661710037175 17.027799428423  2.20817843866171 17.0805404001039  2.02973977695167 17.0654715510522  C 1.8364312267658 17.0353338529488  1.68029739776952 16.9524551831645  1.56133828996283 16.8168355416991  L 0.178438661710037 15.1441932969603  C 0.0594795539033458 14.9935048064432  0.00743494423791827 14.8164458300857  0.0223048327137546 14.6130163678878  C 0.0371747211895912 14.4095869056898  0.118959107806692 14.247596778384  0.267657992565056 14.1270459859704  L 16.3048327137546 0.587685113016369  C 16.7806691449814 0.19589503767212  17.3457249070632 0  18 0  C 18.6542750929368 0  19.2193308550186 0.19589503767212  19.6951672862454 0.587685113016369  L 25.1375464684015 5.1987529228371  L 25.1375464684015 0.79111457521434  C 25.1375464684015 0.580150688490514  25.2044609665428 0.406858924395946  25.3382899628253 0.271239282930633  C 25.4721189591078 0.135619641465316  25.6431226765799 0.0678098207326582  25.8513011152416 0.0678098207326582  L 30.1338289962825 0.0678098207326582  C 30.3420074349442 0.0678098207326582  30.5130111524164 0.135619641465316  30.6468401486989 0.271239282930633  C 30.7806691449814 0.406858924395946  30.8475836431227 0.580150688490514  30.8475836431227 0.79111457521434  L 30.8475836431227 10.0132501948558  L 35.7323420074349 14.1270459859704  C 35.8810408921933 14.247596778384  35.9628252788104 14.4095869056898  35.9776951672862 14.6130163678878  Z " stroke-width="4" stroke="#aaaaaa" fill="none" transform="matrix(1 0 0 1 19 619 )" mask="url(#clip2)" />
  </g>
</svg>