<?xml version="1.0" encoding="utf-8"?>
<svg version="1.1" xmlns:xlink="http://www.w3.org/1999/xlink" width="36px" height="29px" xmlns="http://www.w3.org/2000/svg">
  <g>
    <path d="M 30.4445805266381 6.89460784313726  C 30.8560930802205 6.56290849673203  31.0618493570116 6.16013071895425  31.0618493570116 5.68627450980392  C 31.0618493570116 5.21241830065359  30.8560930802205 4.80964052287581  30.4445805266381 4.47794117647059  C 30.0330679730557 4.14624183006536  29.5333741579914 3.98039215686274  28.9454990814452 3.98039215686274  C 28.357624004899 3.98039215686274  27.8579301898347 4.14624183006536  27.4464176362523 4.47794117647059  C 27.0349050826699 4.80964052287581  26.8291488058787 5.21241830065359  26.8291488058787 5.68627450980392  C 26.8291488058787 6.16013071895425  27.0349050826699 6.56290849673203  27.4464176362523 6.89460784313726  C 27.8579301898347 7.22630718954248  28.357624004899 7.3921568627451  28.9454990814452 7.3921568627451  C 29.5333741579914 7.3921568627451  30.0330679730557 7.22630718954248  30.4445805266381 6.89460784313726  Z M 35.7795468462952 0.168811274509805  C 35.9265156154317 0.281352124183004  36 0.414624183006534  36 0.568627450980393  C 36 3.51838235294118  35.4451928965095 6.06832107843137  34.3355786895285 8.21844362745098  C 33.2259644825475 10.3685661764706  31.3631353337416 12.5038807189542  28.7470912431108 14.624387254902  C 27.5566442131047 15.5720996732026  26.1236987140233 16.6145833333333  24.4482547458665 17.7518382352941  L 24.0073484384568 24.4865196078431  C 23.9779546846295 24.6760620915033  23.8603796693203 24.8300653594771  23.6546233925291 24.9485294117647  L 15.1892222902633 28.9289215686275  C 15.0863441518677 28.9763071895425  14.9687691365585 29  14.8364972443356 29  C 14.6601347213717 29  14.4911206368647 28.9466911764706  14.3294549908145 28.8400735294118  L 12.9185548071035 27.702818627451  C 12.727495407226 27.5369689542484  12.6687078995713 27.3474264705882  12.7421922841396 27.1341911764706  L 14.6160440906307 22.2297794117647  L 8.4213104715248 17.2365196078431  L 2.33680342927128 18.7469362745098  C 2.29271279853031 18.7587826797386  2.22657685241886 18.7647058823529  2.13839559093693 18.7647058823529  C 1.93263931414574 18.7647058823529  1.7636252296387 18.7113970588235  1.6313533374158 18.6047794117647  L 0.220453153704838 17.4675245098039  C -0.0293937538273117 17.2424428104575  -0.0661359461114513 17.0114379084967  0.110226576852419 16.7745098039216  L 5.04837721984078 9.95098039215686  C 5.19534598897734 9.78513071895425  5.38640538885487 9.69035947712418  5.62155541947336 9.66666666666667  L 13.9767299448867 9.31127450980392  C 15.3876301285977 7.96078431372549  16.6809552969994 6.80575980392157  17.8567054500919 5.84620098039216  C 20.6197183098592 3.63092320261438  23.2504592774036 2.10273692810457  25.748928352725 1.26164215686274  C 28.2473974280465 0.420547385620914  31.4145744029394 0  35.2504592774036 0  C 35.4562155541947 0  35.6325780771586 0.0562704248365995  35.7795468462952 0.168811274509805  Z " fill-rule="nonzero" fill="#000000" stroke="none" />
  </g>
</svg>