<?xml version="1.0" encoding="utf-8"?>
<svg version="1.1" xmlns:xlink="http://www.w3.org/1999/xlink" width="36px" height="29px" xmlns="http://www.w3.org/2000/svg">
  <defs>
    <mask fill="white" id="clip4">
      <path d="M 35.2165178571429 0.838281250000001  C 35.7388392857143 1.09505208333333  36 1.540625  36 2.175  L 36 26.825  C 36 27.459375  35.7388392857143 27.9049479166667  35.2165178571429 28.16171875  C 35.0424107142857 28.2372395833333  34.875 28.275  34.7142857142857 28.275  C 34.3526785714286 28.275  34.0513392857143 28.1315104166667  33.8102678571429 27.84453125  L 25.7142857142857 18.7140625  L 25.7142857142857 22.475  C 25.7142857142857 24.2723958333333  25.1484375 25.8092447916667  24.0167410714286 27.085546875  C 22.8850446428571 28.3618489583333  21.5223214285714 29  19.9285714285714 29  L 5.78571428571429 29  C 4.19196428571429 29  2.82924107142857 28.3618489583333  1.69754464285714 27.085546875  C 0.565848214285714 25.8092447916667  0 24.2723958333333  0 22.475  L 0 6.525  C 0 4.72760416666666  0.565848214285714 3.19075520833333  1.69754464285714 1.914453125  C 2.82924107142857 0.638151041666663  4.19196428571429 0  5.78571428571429 0  L 19.9285714285714 0  C 21.5223214285714 0  22.8850446428571 0.638151041666663  24.0167410714286 1.914453125  C 25.1484375 3.19075520833333  25.7142857142857 4.72760416666666  25.7142857142857 6.525  L 25.7142857142857 10.26328125  L 33.8102678571429 1.15546875  C 34.0513392857143 0.868489583333332  34.3526785714286 0.725000000000001  34.7142857142857 0.725000000000001  C 34.875 0.725000000000001  35.0424107142857 0.762760416666662  35.2165178571429 0.838281250000001  Z " fill-rule="evenodd" />
    </mask>
  </defs>
  <g transform="matrix(1 0 0 1 -91 -619 )">
    <path d="M 35.2165178571429 0.838281250000001  C 35.7388392857143 1.09505208333333  36 1.540625  36 2.175  L 36 26.825  C 36 27.459375  35.7388392857143 27.9049479166667  35.2165178571429 28.16171875  C 35.0424107142857 28.2372395833333  34.875 28.275  34.7142857142857 28.275  C 34.3526785714286 28.275  34.0513392857143 28.1315104166667  33.8102678571429 27.84453125  L 25.7142857142857 18.7140625  L 25.7142857142857 22.475  C 25.7142857142857 24.2723958333333  25.1484375 25.8092447916667  24.0167410714286 27.085546875  C 22.8850446428571 28.3618489583333  21.5223214285714 29  19.9285714285714 29  L 5.78571428571429 29  C 4.19196428571429 29  2.82924107142857 28.3618489583333  1.69754464285714 27.085546875  C 0.565848214285714 25.8092447916667  0 24.2723958333333  0 22.475  L 0 6.525  C 0 4.72760416666666  0.565848214285714 3.19075520833333  1.69754464285714 1.914453125  C 2.82924107142857 0.638151041666663  4.19196428571429 0  5.78571428571429 0  L 19.9285714285714 0  C 21.5223214285714 0  22.8850446428571 0.638151041666663  24.0167410714286 1.914453125  C 25.1484375 3.19075520833333  25.7142857142857 4.72760416666666  25.7142857142857 6.525  L 25.7142857142857 10.26328125  L 33.8102678571429 1.15546875  C 34.0513392857143 0.868489583333332  34.3526785714286 0.725000000000001  34.7142857142857 0.725000000000001  C 34.875 0.725000000000001  35.0424107142857 0.762760416666662  35.2165178571429 0.838281250000001  Z " fill-rule="nonzero" fill="#ffffff" stroke="none" transform="matrix(1 0 0 1 91 619 )" />
    <path d="M 35.2165178571429 0.838281250000001  C 35.7388392857143 1.09505208333333  36 1.540625  36 2.175  L 36 26.825  C 36 27.459375  35.7388392857143 27.9049479166667  35.2165178571429 28.16171875  C 35.0424107142857 28.2372395833333  34.875 28.275  34.7142857142857 28.275  C 34.3526785714286 28.275  34.0513392857143 28.1315104166667  33.8102678571429 27.84453125  L 25.7142857142857 18.7140625  L 25.7142857142857 22.475  C 25.7142857142857 24.2723958333333  25.1484375 25.8092447916667  24.0167410714286 27.085546875  C 22.8850446428571 28.3618489583333  21.5223214285714 29  19.9285714285714 29  L 5.78571428571429 29  C 4.19196428571429 29  2.82924107142857 28.3618489583333  1.69754464285714 27.085546875  C 0.565848214285714 25.8092447916667  0 24.2723958333333  0 22.475  L 0 6.525  C 0 4.72760416666666  0.565848214285714 3.19075520833333  1.69754464285714 1.914453125  C 2.82924107142857 0.638151041666663  4.19196428571429 0  5.78571428571429 0  L 19.9285714285714 0  C 21.5223214285714 0  22.8850446428571 0.638151041666663  24.0167410714286 1.914453125  C 25.1484375 3.19075520833333  25.7142857142857 4.72760416666666  25.7142857142857 6.525  L 25.7142857142857 10.26328125  L 33.8102678571429 1.15546875  C 34.0513392857143 0.868489583333332  34.3526785714286 0.725000000000001  34.7142857142857 0.725000000000001  C 34.875 0.725000000000001  35.0424107142857 0.762760416666662  35.2165178571429 0.838281250000001  Z " stroke-width="4" stroke="#333333" fill="none" transform="matrix(1 0 0 1 91 619 )" mask="url(#clip4)" />
  </g>
</svg>