<?xml version="1.0" encoding="utf-8"?>
<svg version="1.1" xmlns:xlink="http://www.w3.org/1999/xlink" width="36px" height="29px" xmlns="http://www.w3.org/2000/svg">
  <g transform="matrix(1 0 0 1 -248 -619 )">
    <path d="M 12.1037946428571 10.3746744791667  C 12.6060267857143 10.8466796875  12.8571428571429 11.4162326388889  12.8571428571429 12.0833333333333  C 12.8571428571429 12.7504340277778  12.6060267857143 13.3199869791667  12.1037946428571 13.7919921875  C 11.6015625 14.2639973958333  10.9955357142857 14.5  10.2857142857143 14.5  C 9.57589285714286 14.5  8.96986607142857 14.2639973958333  8.46763392857143 13.7919921875  C 7.96540178571429 13.3199869791667  7.71428571428571 12.7504340277778  7.71428571428571 12.0833333333333  C 7.71428571428571 11.4162326388889  7.96540178571429 10.8466796875  8.46763392857143 10.3746744791667  C 8.96986607142857 9.90266927083333  9.57589285714286 9.66666666666667  10.2857142857143 9.66666666666667  C 10.9955357142857 9.66666666666667  11.6015625 9.90266927083333  12.1037946428571 10.3746744791667  Z M 19.8180803571429 10.3746744791667  C 20.3203125 10.8466796875  20.5714285714286 11.4162326388889  20.5714285714286 12.0833333333333  C 20.5714285714286 12.7504340277778  20.3203125 13.3199869791667  19.8180803571429 13.7919921875  C 19.3158482142857 14.2639973958333  18.7098214285714 14.5  18 14.5  C 17.2901785714286 14.5  16.6841517857143 14.2639973958333  16.1819196428571 13.7919921875  C 15.6796875 13.3199869791667  15.4285714285714 12.7504340277778  15.4285714285714 12.0833333333333  C 15.4285714285714 11.4162326388889  15.6796875 10.8466796875  16.1819196428571 10.3746744791667  C 16.6841517857143 9.90266927083333  17.2901785714286 9.66666666666667  18 9.66666666666667  C 18.7098214285714 9.66666666666667  19.3158482142857 9.90266927083333  19.8180803571429 10.3746744791667  Z M 27.5323660714286 10.3746744791667  C 28.0345982142857 10.8466796875  28.2857142857143 11.4162326388889  28.2857142857143 12.0833333333333  C 28.2857142857143 12.7504340277778  28.0345982142857 13.3199869791667  27.5323660714286 13.7919921875  C 27.0301339285714 14.2639973958333  26.4241071428571 14.5  25.7142857142857 14.5  C 25.0044642857143 14.5  24.3984375 14.2639973958333  23.8962053571429 13.7919921875  C 23.3939732142857 13.3199869791667  23.1428571428571 12.7504340277778  23.1428571428571 12.0833333333333  C 23.1428571428571 11.4162326388889  23.3939732142857 10.8466796875  23.8962053571429 10.3746744791667  C 24.3984375 9.90266927083333  25.0044642857143 9.66666666666667  25.7142857142857 9.66666666666667  C 26.4241071428571 9.66666666666667  27.0301339285714 9.90266927083333  27.5323660714286 10.3746744791667  Z M 25.6640625 3.72884114583333  C 23.2868303571429 2.85405815972222  20.7321428571429 2.41666666666667  18 2.41666666666667  C 15.2678571428571 2.41666666666667  12.7131696428571 2.85405815972222  10.3359375 3.72884114583333  C 7.95870535714286 4.60362413194444  6.0703125 5.78363715277778  4.67075892857143 7.26888020833333  C 3.27120535714286 8.75412326388889  2.57142857142857 10.3589409722222  2.57142857142857 12.0833333333333  C 2.57142857142857 13.4930555555556  3.05022321428571 14.8366970486111  4.0078125 16.1142578125  C 4.96540178571429 17.3918185763889  6.31473214285714 18.4963107638889  8.05580357142857 19.427734375  L 9.80357142857143 20.3717447916667  L 9.26116071428572 22.1842447916667  C 8.93973214285714 23.3296440972222  8.47098214285714 24.412109375  7.85491071428571 25.431640625  C 9.890625 24.638671875  11.7321428571429 23.5625  13.3794642857143 22.203125  L 14.2433035714286 21.4856770833333  L 15.3883928571429 21.5989583333333  C 16.3125 21.6996527777778  17.1830357142857 21.75  18 21.75  C 20.7321428571429 21.75  23.2868303571429 21.3126085069444  25.6640625 20.4378255208333  C 28.0412946428571 19.5630425347222  29.9296875 18.3830295138889  31.3292410714286 16.8977864583333  C 32.7287946428571 15.4125434027778  33.4285714285714 13.8077256944444  33.4285714285714 12.0833333333333  C 33.4285714285714 10.3589409722222  32.7287946428571 8.75412326388889  31.3292410714286 7.26888020833333  C 29.9296875 5.78363715277778  28.0412946428571 4.60362413194444  25.6640625 3.72884114583333  Z M 34.5736607142857 7.3916015625  C 35.5245535714286 8.88313802083333  36 10.4470486111111  36 12.0833333333333  C 36 14.2734375  35.1964285714286 16.2967664930556  33.5892857142857 18.1533203125  C 31.9821428571429 20.0098741319444  29.7991071428571 21.4762369791667  27.0401785714286 22.5524088541667  C 24.28125 23.6285807291667  21.2678571428571 24.1666666666667  18 24.1666666666667  C 17.0625 24.1666666666667  16.0915178571429 24.1163194444444  15.0870535714286 24.015625  C 12.4352678571429 26.2183159722222  9.35491071428572 27.7413194444444  5.84598214285714 28.5846354166667  C 5.18973214285714 28.7608506944444  4.42633928571429 28.8993055555556  3.55580357142857 29  L 3.45535714285714 29  C 3.25446428571429 29  3.07366071428571 28.9339192708333  2.91294642857143 28.8017578125  C 2.75223214285714 28.6695963541667  2.64508928571429 28.4965277777778  2.59151785714286 28.2825520833333  L 2.59151785714286 28.263671875  C 2.55133928571429 28.2133246527778  2.54799107142857 28.1378038194444  2.58147321428571 28.037109375  C 2.61495535714286 27.9364149305556  2.62834821428571 27.8734809027778  2.62165178571429 27.8483072916667  C 2.61495535714286 27.8231336805556  2.64508928571429 27.7633463541667  2.71205357142857 27.6689453125  L 2.83258928571429 27.4990234375  C 2.83258928571429 27.4990234375  2.87946428571429 27.4455295138889  2.97321428571429 27.3385416666667  C 3.06696428571429 27.2315538194444  3.12053571428571 27.1749131944444  3.13392857142857 27.1686197916667  C 3.22767857142857 27.0679253472222  3.43526785714286 26.8508029513889  3.75669642857143 26.5172526041667  C 4.078125 26.1837022569444  4.30915178571429 25.9445529513889  4.44977678571429 25.7998046875  C 4.59040178571429 25.6550564236111  4.79799107142857 25.4064670138889  5.07254464285714 25.0540364583333  C 5.34709821428571 24.7016059027778  5.56473214285714 24.3806423611111  5.72544642857143 24.0911458333333  C 5.88616071428571 23.8016493055556  6.06696428571429 23.4303385416667  6.26785714285714 22.9772135416667  C 6.46875 22.5240885416667  6.64285714285714 22.0457899305556  6.79017857142857 21.5423177083333  C 4.6875 20.4220920138889  3.03013392857143 19.0375434027778  1.81808035714286 17.388671875  C 0.606026785714286 15.7398003472222  0 13.9713541666667  0 12.0833333333333  C 0 10.4470486111111  0.475446428571428 8.88313802083333  1.42633928571429 7.3916015625  C 2.37723214285714 5.90006510416667  3.65625 4.61306423611111  5.26339285714286 3.53059895833333  C 6.87053571428571 2.44813368055555  8.78571428571429 1.58908420138888  11.0089285714286 0.953450520833332  C 13.2321428571429 0.317816840277776  15.5625 0  18 0  C 20.4375 0  22.7678571428571 0.317816840277776  24.9910714285714 0.953450520833332  C 27.2142857142857 1.58908420138888  29.1294642857143 2.44813368055555  30.7366071428571 3.53059895833333  C 32.34375 4.61306423611111  33.6227678571429 5.90006510416667  34.5736607142857 7.3916015625  Z " fill-rule="nonzero" fill="#333333" stroke="none" transform="matrix(1 0 0 1 248 619 )" />
  </g>
</svg>