<?xml version="1.0" encoding="utf-8"?>
<svg version="1.1" xmlns:xlink="http://www.w3.org/1999/xlink" width="36px" height="29px" xmlns="http://www.w3.org/2000/svg">
  <g transform="matrix(1 0 0 1 -320 -619 )">
    <path d="M 35.9105113636364 22.1559244791667  C 35.9701704545455 22.7915581597222  36 23.4429253472222  36 24.1100260416667  C 36 25.6204427083333  35.3778409090909 26.8130425347222  34.1335227272727 27.6878255208333  C 32.8892045454545 28.5626085069444  31.2357954545455 29  29.1732954545455 29  L 6.82670454545455 29  C 4.76420454545455 29  3.11079545454545 28.5626085069444  1.86647727272727 27.6878255208333  C 0.622159090909091 26.8130425347222  0 25.6204427083333  0 24.1100260416667  C 0 23.4429253472222  0.0298295454545455 22.7915581597222  0.0894886363636364 22.1559244791667  C 0.149147727272727 21.5202907986111  0.268465909090909 20.8343098958333  0.447443181818182 20.0979817708333  C 0.626420454545454 19.3616536458333  0.852272727272727 18.6788194444444  1.125 18.0494791666667  C 1.39772727272727 17.4201388888889  1.76420454545455 16.8065321180556  2.22443181818182 16.2086588541667  C 2.68465909090909 15.6107855902778  3.21306818181818 15.1010199652778  3.80965909090909 14.6793619791667  C 4.40625 14.2577039930556  5.13494318181818 13.9210069444444  5.99573863636364 13.6692708333333  C 6.85653409090909 13.4175347222222  7.80681818181818 13.2916666666667  8.84659090909091 13.2916666666667  C 9 13.2916666666667  9.35795454545455 13.4269748263889  9.92045454545455 13.6975911458333  C 10.4829545454545 13.9682074652778  11.1178977272727 14.2702907986111  11.8252840909091 14.6038411458333  C 12.5326704545455 14.9373914930556  13.453125 15.2394748263889  14.5866477272727 15.5100911458333  C 15.7201704545455 15.7807074652778  16.8579545454545 15.916015625  18 15.916015625  C 19.1420454545455 15.916015625  20.2798295454545 15.7807074652778  21.4133522727273 15.5100911458333  C 22.546875 15.2394748263889  23.4673295454545 14.9373914930556  24.1747159090909 14.6038411458333  C 24.8821022727273 14.2702907986111  25.5170454545455 13.9682074652778  26.0795454545455 13.6975911458333  C 26.6420454545455 13.4269748263889  27 13.2916666666667  27.1534090909091 13.2916666666667  C 28.1931818181818 13.2916666666667  29.1434659090909 13.4175347222222  30.0042613636364 13.6692708333333  C 30.8650568181818 13.9210069444444  31.59375 14.2577039930556  32.1903409090909 14.6793619791667  C 32.7869318181818 15.1010199652778  33.3153409090909 15.6107855902778  33.7755681818182 16.2086588541667  C 34.2357954545455 16.8065321180556  34.6022727272727 17.4201388888889  34.875 18.0494791666667  C 35.1477272727273 18.6788194444444  35.3735795454545 19.3616536458333  35.5525568181818 20.0979817708333  C 35.7315340909091 20.8343098958333  35.8508522727273 21.5202907986111  35.9105113636364 22.1559244791667  Z M 24.9417613636364 2.1240234375  C 26.859375 3.5400390625  27.8181818181818 5.24869791666667  27.8181818181818 7.25  C 27.8181818181818 9.25130208333333  26.859375 10.9599609375  24.9417613636364 12.3759765625  C 23.0241477272727 13.7919921875  20.7102272727273 14.5  18 14.5  C 15.2897727272727 14.5  12.9758522727273 13.7919921875  11.0582386363636 12.3759765625  C 9.140625 10.9599609375  8.18181818181818 9.25130208333333  8.18181818181818 7.25  C 8.18181818181818 5.24869791666667  9.140625 3.5400390625  11.0582386363636 2.1240234375  C 12.9758522727273 0.7080078125  15.2897727272727 0  18 0  C 20.7102272727273 0  23.0241477272727 0.7080078125  24.9417613636364 2.1240234375  Z " fill-rule="nonzero" fill="#aaaaaa" stroke="none" transform="matrix(1 0 0 1 320 619 )" />
  </g>
</svg>