<?xml version="1.0" encoding="utf-8"?>
<svg version="1.1" xmlns:xlink="http://www.w3.org/1999/xlink" width="7px" height="6px" xmlns="http://www.w3.org/2000/svg">
  <defs>
    <mask fill="white" id="clip8">
      <path d="M 3.671875 5.9296875  C 3.625 5.9765625  3.56770833333333 6  3.5 6  C 3.43229166666667 6  3.375 5.9765625  3.328125 5.9296875  L 0.890625 3.578125  C 0.864583333333333 3.55729166666667  0.828776041666667 3.5234375  0.783203125 3.4765625  C 0.737630208333333 3.4296875  0.665364583333333 3.34440104166667  0.56640625 3.220703125  C 0.467447916666667 3.09700520833333  0.37890625 2.97005208333333  0.30078125 2.83984375  C 0.22265625 2.70963541666667  0.152994791666667 2.55208333333333  0.091796875 2.3671875  C 0.0305989583333333 2.18229166666667  0 2.00260416666667  0 1.828125  C 0 1.25520833333333  0.165364583333333 0.807291666666666  0.49609375 0.484375  C 0.826822916666667 0.161458333333333  1.28385416666667 0  1.8671875 0  C 2.02864583333333 0  2.193359375 0.0279947916666663  2.361328125 0.0839843750000002  C 2.529296875 0.139973958333333  2.685546875 0.215494791666666  2.830078125 0.310546875  C 2.974609375 0.405598958333333  3.09895833333333 0.494791666666666  3.203125 0.578125  C 3.30729166666667 0.661458333333333  3.40625 0.75  3.5 0.84375  C 3.59375 0.75  3.69270833333333 0.661458333333333  3.796875 0.578125  C 3.90104166666667 0.494791666666666  4.025390625 0.405598958333333  4.169921875 0.310546875  C 4.314453125 0.215494791666666  4.470703125 0.139973958333333  4.638671875 0.0839843750000002  C 4.806640625 0.0279947916666663  4.97135416666667 0  5.1328125 0  C 5.71614583333333 0  6.17317708333333 0.161458333333333  6.50390625 0.484375  C 6.83463541666667 0.807291666666666  7 1.25520833333333  7 1.828125  C 7 2.40364583333333  6.70182291666667 2.98958333333333  6.10546875 3.5859375  L 3.671875 5.9296875  Z " fill-rule="evenodd" />
    </mask>
  </defs>
  <g>
    <path d="M 3.671875 5.9296875  C 3.625 5.9765625  3.56770833333333 6  3.5 6  C 3.43229166666667 6  3.375 5.9765625  3.328125 5.9296875  L 0.890625 3.578125  C 0.864583333333333 3.55729166666667  0.828776041666667 3.5234375  0.783203125 3.4765625  C 0.737630208333333 3.4296875  0.665364583333333 3.34440104166667  0.56640625 3.220703125  C 0.467447916666667 3.09700520833333  0.37890625 2.97005208333333  0.30078125 2.83984375  C 0.22265625 2.70963541666667  0.152994791666667 2.55208333333333  0.091796875 2.3671875  C 0.0305989583333333 2.18229166666667  0 2.00260416666667  0 1.828125  C 0 1.25520833333333  0.165364583333333 0.807291666666666  0.49609375 0.484375  C 0.826822916666667 0.161458333333333  1.28385416666667 0  1.8671875 0  C 2.02864583333333 0  2.193359375 0.0279947916666663  2.361328125 0.0839843750000002  C 2.529296875 0.139973958333333  2.685546875 0.215494791666666  2.830078125 0.310546875  C 2.974609375 0.405598958333333  3.09895833333333 0.494791666666666  3.203125 0.578125  C 3.30729166666667 0.661458333333333  3.40625 0.75  3.5 0.84375  C 3.59375 0.75  3.69270833333333 0.661458333333333  3.796875 0.578125  C 3.90104166666667 0.494791666666666  4.025390625 0.405598958333333  4.169921875 0.310546875  C 4.314453125 0.215494791666666  4.470703125 0.139973958333333  4.638671875 0.0839843750000002  C 4.806640625 0.0279947916666663  4.97135416666667 0  5.1328125 0  C 5.71614583333333 0  6.17317708333333 0.161458333333333  6.50390625 0.484375  C 6.83463541666667 0.807291666666666  7 1.25520833333333  7 1.828125  C 7 2.40364583333333  6.70182291666667 2.98958333333333  6.10546875 3.5859375  L 3.671875 5.9296875  Z " fill-rule="nonzero" fill="#ffffff" stroke="none" />
    <path d="M 3.671875 5.9296875  C 3.625 5.9765625  3.56770833333333 6  3.5 6  C 3.43229166666667 6  3.375 5.9765625  3.328125 5.9296875  L 0.890625 3.578125  C 0.864583333333333 3.55729166666667  0.828776041666667 3.5234375  0.783203125 3.4765625  C 0.737630208333333 3.4296875  0.665364583333333 3.34440104166667  0.56640625 3.220703125  C 0.467447916666667 3.09700520833333  0.37890625 2.97005208333333  0.30078125 2.83984375  C 0.22265625 2.70963541666667  0.152994791666667 2.55208333333333  0.091796875 2.3671875  C 0.0305989583333333 2.18229166666667  0 2.00260416666667  0 1.828125  C 0 1.25520833333333  0.165364583333333 0.807291666666666  0.49609375 0.484375  C 0.826822916666667 0.161458333333333  1.28385416666667 0  1.8671875 0  C 2.02864583333333 0  2.193359375 0.0279947916666663  2.361328125 0.0839843750000002  C 2.529296875 0.139973958333333  2.685546875 0.215494791666666  2.830078125 0.310546875  C 2.974609375 0.405598958333333  3.09895833333333 0.494791666666666  3.203125 0.578125  C 3.30729166666667 0.661458333333333  3.40625 0.75  3.5 0.84375  C 3.59375 0.75  3.69270833333333 0.661458333333333  3.796875 0.578125  C 3.90104166666667 0.494791666666666  4.025390625 0.405598958333333  4.169921875 0.310546875  C 4.314453125 0.215494791666666  4.470703125 0.139973958333333  4.638671875 0.0839843750000002  C 4.806640625 0.0279947916666663  4.97135416666667 0  5.1328125 0  C 5.71614583333333 0  6.17317708333333 0.161458333333333  6.50390625 0.484375  C 6.83463541666667 0.807291666666666  7 1.25520833333333  7 1.828125  C 7 2.40364583333333  6.70182291666667 2.98958333333333  6.10546875 3.5859375  L 3.671875 5.9296875  Z " stroke-width="4" stroke="#7f7f7f" fill="none" mask="url(#clip8)" />
  </g>
</svg>