<?xml version="1.0" encoding="utf-8"?>
<svg version="1.1" xmlns:xlink="http://www.w3.org/1999/xlink" width="57px" height="20px" xmlns="http://www.w3.org/2000/svg">
  <defs>
    <mask fill="white" id="clip76">
      <path d="M 10 20  C 4.4 20  0 15.6  0 10  C 0 4.4  4.4 0  10 0  L 28.6000000000022 0  L 47 0  C 52.6 0  57 4.4  57 10  C 57 15.6  52.6 20  47 20  L 10 20  Z " fill-rule="evenodd" />
    </mask>
  </defs>
  <g>
    <path d="M 10 20  C 4.4 20  0 15.6  0 10  C 0 4.4  4.4 0  10 0  L 28.6000000000022 0  L 47 0  C 52.6 0  57 4.4  57 10  C 57 15.6  52.6 20  47 20  L 10 20  Z " fill-rule="nonzero" fill="#ffffff" stroke="none" />
    <path d="M 10 20  C 4.4 20  0 15.6  0 10  C 0 4.4  4.4 0  10 0  L 28.6000000000022 0  L 47 0  C 52.6 0  57 4.4  57 10  C 57 15.6  52.6 20  47 20  L 10 20  Z " stroke-width="2" stroke="#aaaaaa" fill="none" mask="url(#clip76)" />
  </g>
</svg>